<?xml version="1.0" encoding="utf-8"?>
<!-- Generator: Adobe Illustrator 16.0.0, SVG Export Plug-In . SVG Version: 6.00 Build 0)  -->
<!DOCTYPE svg PUBLIC "-//W3C//DTD SVG 1.1//EN" "http://www.w3.org/Graphics/SVG/1.1/DTD/svg11.dtd">
<svg version="1.1" id="Layer_1" xmlns="http://www.w3.org/2000/svg" xmlns:xlink="http://www.w3.org/1999/xlink" x="0px" y="0px"
	 width="244px" height="228px" viewBox="0 0 244 228" enable-background="new 0 0 244 228" xml:space="preserve">
<g>
	<path fill="#8B8B8B" d="M242.073,132.087c-57.47,0-114.941-0.244-172.41,0.091c-34.945,0.203-69.887,1.245-104.827,2.014
		c-22.648,0.498-45.343,0.455-67.92,2.035c-15.521,1.088-31.08,3.668-46.246,7.197c-13.688,3.186-22.351,13.109-28.966,25.588
		c-5.242,9.889-12.28,18.92-19.195,27.807c-7.087,9.104-16.976,12.115-28.441,11.277c-24.552-1.798-44.233-24.324-40.599-47.686
		c0.854-5.489,3.511-11.2,6.855-15.676c4.432-5.93,10.229-10.881,15.677-15.998c4.05-3.805,4.355-10.361,0.008-14.663
		c-4.14-4.097-8.779-7.707-12.76-11.943c-17.159-18.26-14.822-44.815,5.644-58.587c10.592-7.128,22.669-9.132,35.374-5.871
		c16.531,4.241,29.593,12.868,38.669,27.772c3.925,6.445,9.339,12.168,14.828,17.436c11.882,11.399,27.271,13.458,42.723,13.924
		c39.287,1.186,78.586,2.458,117.885,2.631C57.184,99.693,116,98.953,174.814,98.809c34.819-0.086,69.662,0.977,104.455,0.039
		c41.45-1.117,82.872-3.58,124.277-5.973c14.634-0.846,28.905-4.866,40.554-13.987c7.283-5.703,13.401-13.275,18.832-20.873
		c8.033-11.237,15.6-22.361,30.292-25.771c7.43-1.725,14.606-1.705,21.599,0.989c11.165,4.303,19.416,12.291,25.277,22.478
		c4.162,7.231,1.97,15.01-0.396,22.333c-2.537,7.858-6.781,14.699-13.093,20.33c-4.196,3.744-7.896,8.108-11.45,12.492
		c-5.991,7.389-2.593,17.344,1.979,22.504c2.495,2.817,5.745,5.092,8.967,7.114c11.212,7.043,17.666,17.298,17.188,30.26
		c-0.489,13.337-6.708,23.979-19.588,30.18c-19.865,9.564-37.525,5.129-51.169-13.554c-3.241-4.438-6.514-8.861-9.577-13.422
		c-15.244-22.696-37.69-34.195-63.771-36.513c-42.595-3.787-85.247-8.311-128.162-6.394c-9.649,0.433-19.295,0.976-28.941,1.468
		C242.084,132.369,242.079,132.229,242.073,132.087z"/>
</g>
</svg>
