<svg width="35" height="43" viewBox="0 0 35 43" fill="none" xmlns="http://www.w3.org/2000/svg">
<path fill-rule="evenodd" clip-rule="evenodd" d="M24.907 26.672C26.292 30.473 28.774 36.197 29.848 39.525C30.81 42.505 28.666 42.46 28.033 42.426C26.786 42.366 26.113 41.42 25.533 39.312C21.649 25.265 14.033 13.487 3.686 3.35901C2.657 2.35201 1.557 1.415 0 0C0.971 0.215 1.35401 0.217991 1.65201 0.377991C17.371 8.81099 28.257 21.248 34.108 38.236C34.801 40.253 34.296 41.96 33.753 42.234C32.439 42.9 31.905 41.932 31.541 40.624C30.158 35.621 28.398 30.761 24.907 26.672Z" fill="#BFBFBF"/>
</svg>
